<?xml version="1.0" standalone="no"?>
<!DOCTYPE svg PUBLIC "-//W3C//DTD SVG 20010904//EN"
 "http://www.w3.org/TR/2001/REC-SVG-20010904/DTD/svg10.dtd">
<svg version="1.0" xmlns="http://www.w3.org/2000/svg"
 width="300.000000pt" height="219.000000pt" viewBox="0 0 300.000000 219.000000"
 preserveAspectRatio="xMidYMid meet">
<metadata>
Created by potrace 1.10, written by Peter Selinger 2001-2011
</metadata>
<g transform="translate(0.000000,219.000000) scale(0.100000,-0.100000)"
fill="#000000" stroke="none">
<path d="M10 2175 c0 -9 25 -68 56 -133 183 -384 505 -1085 520 -1130 13 -43
15 -60 6 -90 -21 -70 -72 -108 -197 -148 -38 -12 -71 -28 -73 -36 -2 -15 112
-83 203 -121 68 -28 204 -61 313 -77 168 -24 392 -7 712 54 142 27 315 55 371
61 l57 6 21 60 c12 32 20 63 17 68 -3 4 -47 11 -97 15 -199 15 -487 101 -616
185 -32 20 -81 60 -109 87 -45 42 -537 552 -1009 1044 -160 167 -175 180 -175
155z m277 -315 c77 -80 166 -172 198 -205 32 -33 167 -172 300 -310 133 -137
272 -283 310 -323 132 -140 219 -197 410 -265 93 -34 287 -79 398 -92 96 -12
66 -69 -41 -80 -37 -3 -110 -15 -162 -25 -52 -10 -114 -21 -138 -24 -24 -3
-46 -8 -50 -10 -16 -10 -353 -57 -432 -60 -190 -9 -454 41 -599 113 -41 20
-74 41 -73 46 0 6 23 19 52 31 83 33 131 74 157 134 29 66 15 131 -65 300 -24
52 -57 122 -72 155 -92 200 -147 318 -214 455 -22 47 -41 87 -42 90 0 3 -17
41 -38 85 -64 135 -69 148 -53 138 8 -4 77 -73 154 -153z"/>
<path d="M942 1806 c-169 -28 -327 -98 -327 -146 0 -45 27 -47 107 -7 112 57
212 80 348 80 177 1 324 -47 466 -152 168 -123 266 -269 316 -466 20 -83 27
-205 16 -315 -3 -22 1 -25 32 -25 31 0 36 4 41 30 22 100 -5 328 -52 447 -147
374 -562 617 -947 554z"/>
<path d="M286 1336 c-14 -25 -43 -93 -63 -153 -37 -107 -37 -109 -36 -263 0
-123 5 -171 21 -232 45 -167 136 -322 257 -437 122 -116 224 -174 380 -216 93
-26 109 -27 255 -22 123 3 169 9 225 27 154 49 308 153 417 281 49 58 108 149
108 168 0 12 -59 15 -75 3 -5 -4 -27 -33 -48 -64 -51 -74 -169 -186 -244 -230
-146 -86 -302 -125 -463 -115 -128 8 -196 27 -319 89 -310 155 -495 517 -437
859 18 102 46 194 78 250 19 34 19 38 4 68 -9 17 -20 31 -25 31 -5 0 -21 -20
-35 -44z m804 -1307 c-41 -12 -80 -10 -80 4 0 8 15 11 52 8 43 -3 48 -6 28
-12z"/>
<path d="M2420 739 c-52 -10 -140 -27 -194 -36 -91 -17 -101 -20 -118 -48 -21
-35 -24 -81 -5 -87 6 -3 44 -6 82 -7 39 -1 142 -6 230 -11 216 -13 436 -12
515 3 54 10 65 15 65 32 0 21 -5 21 -256 25 -33 0 -38 3 -53 43 -22 57 -51 83
-106 96 -54 13 -43 13 -160 -10z m194 -48 c10 -9 29 -37 41 -63 l23 -48 -111
1 c-130 0 -413 22 -423 31 -15 15 7 37 43 43 21 3 67 12 103 20 36 8 81 18
100 21 19 3 55 9 80 14 58 10 120 2 144 -19z"/>
</g>
</svg>
